# MagicaVoxel @ Ephtracy

# group
o 

# material
mtllib Land2.mtl
usemtl palette

# normals
vn -1 0 0
vn 1 0 0
vn 0 0 1
vn 0 0 -1
vn 0 -1 0
vn 0 1 0

# texcoords
vt 0.310547 0.5
vt 0.525391 0.5
vt 0.580078 0.5
vt 0.583984 0.5
vt 0.986328 0.5

# verts
v -1.6 0 1.6
v -1.6 0 -1.6
v -1.6 0.4 1.6
v -1.6 0.4 1.5
v -1.6 0.4 1
v -1.6 0.4 0.7
v -1.6 0.4 0.5
v -1.6 0.4 0.2
v -1.6 0.4 -0.3
v -1.6 0.4 -0.7
v -1.6 0.4 -0.9
v -1.6 0.4 -1
v -1.6 0.4 -1.2
v -1.6 0.4 -1.3
v -1.6 0.4 -1.5
v -1.6 0.4 -1.6
v -1.6 0.5 1.5
v -1.6 0.5 1.3
v -1.6 0.5 0.7
v -1.6 0.5 0.6
v -1.6 0.5 0.2
v -1.6 0.5 0.1
v -1.6 0.5 -0.7
v -1.6 0.5 -0.9
v -1.6 0.5 -1
v -1.6 0.5 -1.2
v -1.6 0.6 1.3
v -1.6 0.6 1
v -1.6 0.6 0.6
v -1.6 0.6 0.5
v -1.6 0.6 0.1
v -1.6 0.6 -0.3
v -1.6 0.6 -1.3
v -1.6 0.6 -1.5
v -1.6 0.7 1.6
v -1.6 0.7 -1.6
v -1.6 0.9 1.6
v -1.6 0.9 -1.6
v 1.6 0 1.6
v 1.6 0 -1.6
v 1.6 0.4 1.6
v 1.6 0.4 1.2
v 1.6 0.4 0.8
v 1.6 0.4 0.6
v 1.6 0.4 -0.1
v 1.6 0.4 -0.3
v 1.6 0.4 -0.7
v 1.6 0.4 -1
v 1.6 0.4 -1.2
v 1.6 0.4 -1.5
v 1.6 0.5 0.9
v 1.6 0.5 0.8
v 1.6 0.5 0.6
v 1.6 0.5 0.1
v 1.6 0.5 -0.3
v 1.6 0.5 -0.4
v 1.6 0.6 1.2
v 1.6 0.6 0.9
v 1.6 0.6 0.1
v 1.6 0.6 -0.1
v 1.6 0.6 -0.4
v 1.6 0.6 -0.7
v 1.6 0.6 -1
v 1.6 0.6 -1.2
v 1.6 0.6 -1.5
v 1.6 0.6 -1.6
v 1.6 0.7 1.6
v 1.6 0.7 -1.6
v 1.6 0.9 1.6
v 1.6 0.9 -1.6
v -1.6 0 1.6
v -1.6 0.4 1.6
v -1.6 0.7 1.6
v -1.6 0.9 1.6
v -1.3 0.4 1.6
v -1.3 0.5 1.6
v -1.2 0.5 1.6
v -1.2 0.6 1.6
v -0.9 0.5 1.6
v -0.9 0.6 1.6
v -0.8 0.5 1.6
v -0.8 0.6 1.6
v -0.5 0.5 1.6
v -0.5 0.6 1.6
v -0.4 0.4 1.6
v -0.4 0.5 1.6
v -0.1 0.4 1.6
v -0.1 0.6 1.6
v 0 0.5 1.6
v 0 0.6 1.6
v 0.1 0.6 1.6
v 0.1 0.7 1.6
v 0.2 0.4 1.6
v 0.2 0.5 1.6
v 0.2 0.6 1.6
v 0.2 0.7 1.6
v 0.7 0.4 1.6
v 0.7 0.5 1.6
v 1.1 0.5 1.6
v 1.1 0.6 1.6
v 1.2 0.5 1.6
v 1.2 0.6 1.6
v 1.3 0.4 1.6
v 1.3 0.5 1.6
v 1.6 0 1.6
v 1.6 0.4 1.6
v 1.6 0.7 1.6
v 1.6 0.9 1.6
v -1.6 0 -1.6
v -1.6 0.4 -1.6
v -1.6 0.7 -1.6
v -1.6 0.9 -1.6
v -1.5 0.4 -1.6
v -1.5 0.5 -1.6
v -1.2 0.6 -1.6
v -1.2 0.7 -1.6
v -1 0.4 -1.6
v -1 0.5 -1.6
v -1 0.6 -1.6
v -1 0.7 -1.6
v -0.7 0.4 -1.6
v -0.7 0.6 -1.6
v -0.4 0.4 -1.6
v -0.4 0.6 -1.6
v -0.1 0.6 -1.6
v -0.1 0.7 -1.6
v 0 0.6 -1.6
v 0 0.7 -1.6
v 0.1 0.4 -1.6
v 0.1 0.5 -1.6
v 0.4 0.4 -1.6
v 0.4 0.5 -1.6
v 0.4 0.6 -1.6
v 0.4 0.7 -1.6
v 0.5 0.6 -1.6
v 0.5 0.7 -1.6
v 0.8 0.4 -1.6
v 0.8 0.5 -1.6
v 1.2 0.4 -1.6
v 1.2 0.5 -1.6
v 1.4 0.4 -1.6
v 1.4 0.6 -1.6
v 1.6 0 -1.6
v 1.6 0.6 -1.6
v 1.6 0.7 -1.6
v 1.6 0.9 -1.6
v -1.6 0 1.6
v 1.6 0 1.6
v -1.6 0 -1.6
v 1.6 0 -1.6
v -1.6 0.9 1.6
v 1.6 0.9 1.6
v -1.5 0.9 1.5
v 1.5 0.9 1.5
v -1.5 0.9 -1.5
v 1.5 0.9 -1.5
v -1.6 0.9 -1.6
v 1.6 0.9 -1.6

# faces
f 3/5/1 2/5/1 1/5/1
f 4/5/1 2/5/1 3/5/1
f 5/5/1 2/5/1 4/5/1
f 6/5/1 2/5/1 5/5/1
f 7/5/1 2/5/1 6/5/1
f 8/5/1 2/5/1 7/5/1
f 9/5/1 2/5/1 8/5/1
f 10/5/1 2/5/1 9/5/1
f 11/5/1 2/5/1 10/5/1
f 12/5/1 2/5/1 11/5/1
f 13/5/1 2/5/1 12/5/1
f 14/5/1 2/5/1 13/5/1
f 15/5/1 2/5/1 14/5/1
f 16/5/1 2/5/1 15/5/1
f 17/1/1 4/1/1 3/1/1
f 17/5/1 5/5/1 4/5/1
f 18/5/1 5/5/1 17/5/1
f 19/1/1 6/1/1 5/1/1
f 19/5/1 7/5/1 6/5/1
f 20/5/1 7/5/1 19/5/1
f 21/1/1 8/1/1 7/1/1
f 21/5/1 9/5/1 8/5/1
f 22/5/1 9/5/1 21/5/1
f 23/1/1 10/1/1 9/1/1
f 23/5/1 11/5/1 10/5/1
f 24/1/1 12/1/1 11/1/1
f 24/5/1 11/5/1 23/5/1
f 25/5/1 13/5/1 12/5/1
f 25/1/1 12/1/1 24/1/1
f 26/1/1 14/1/1 13/1/1
f 26/5/1 13/5/1 25/5/1
f 27/5/1 5/5/1 18/5/1
f 27/1/1 18/1/1 17/1/1
f 28/1/1 20/1/1 19/1/1
f 28/5/1 5/5/1 27/5/1
f 28/1/1 19/1/1 5/1/1
f 29/5/1 7/5/1 20/5/1
f 29/1/1 20/1/1 28/1/1
f 30/1/1 22/1/1 21/1/1
f 30/5/1 7/5/1 29/5/1
f 30/1/1 21/1/1 7/1/1
f 31/5/1 9/5/1 22/5/1
f 31/1/1 22/1/1 30/1/1
f 32/1/1 26/1/1 25/1/1
f 32/5/1 9/5/1 31/5/1
f 32/1/1 23/1/1 9/1/1
f 32/1/1 24/1/1 23/1/1
f 32/1/1 25/1/1 24/1/1
f 33/1/1 14/1/1 26/1/1
f 33/1/1 26/1/1 32/1/1
f 33/5/1 15/5/1 14/5/1
f 34/1/1 16/1/1 15/1/1
f 34/5/1 15/5/1 33/5/1
f 35/1/1 33/1/1 32/1/1
f 35/1/1 32/1/1 31/1/1
f 35/1/1 34/1/1 33/1/1
f 35/1/1 17/1/1 3/1/1
f 35/1/1 29/1/1 28/1/1
f 35/1/1 30/1/1 29/1/1
f 35/1/1 27/1/1 17/1/1
f 35/1/1 28/1/1 27/1/1
f 35/1/1 31/1/1 30/1/1
f 36/1/1 16/1/1 34/1/1
f 36/1/1 34/1/1 35/1/1
f 37/3/1 36/3/1 35/3/1
f 38/3/1 36/3/1 37/3/1
f 39/5/2 40/5/2 41/5/2
f 41/5/2 40/5/2 42/5/2
f 42/5/2 40/5/2 43/5/2
f 43/5/2 40/5/2 44/5/2
f 44/5/2 40/5/2 45/5/2
f 45/5/2 40/5/2 46/5/2
f 46/5/2 40/5/2 47/5/2
f 47/5/2 40/5/2 48/5/2
f 48/5/2 40/5/2 49/5/2
f 49/5/2 40/5/2 50/5/2
f 42/5/2 43/5/2 51/5/2
f 43/1/2 44/1/2 52/1/2
f 51/5/2 43/5/2 52/5/2
f 44/5/2 45/5/2 53/5/2
f 52/1/2 44/1/2 53/1/2
f 53/5/2 45/5/2 54/5/2
f 45/1/2 46/1/2 55/1/2
f 46/5/2 47/5/2 55/5/2
f 55/5/2 47/5/2 56/5/2
f 41/1/2 42/1/2 57/1/2
f 42/5/2 51/5/2 57/5/2
f 51/1/2 52/1/2 58/1/2
f 57/5/2 51/5/2 58/5/2
f 53/1/2 54/1/2 58/1/2
f 52/1/2 53/1/2 58/1/2
f 54/5/2 45/5/2 59/5/2
f 58/1/2 54/1/2 59/1/2
f 55/1/2 56/1/2 60/1/2
f 59/5/2 45/5/2 60/5/2
f 45/1/2 55/1/2 60/1/2
f 56/5/2 47/5/2 61/5/2
f 60/1/2 56/1/2 61/1/2
f 47/1/2 48/1/2 62/1/2
f 61/5/2 47/5/2 62/5/2
f 48/5/2 49/5/2 63/5/2
f 62/1/2 48/1/2 63/1/2
f 49/1/2 50/1/2 64/1/2
f 63/5/2 49/5/2 64/5/2
f 50/5/2 40/5/2 65/5/2
f 64/1/2 50/1/2 65/1/2
f 65/5/2 40/5/2 66/5/2
f 59/1/2 60/1/2 67/1/2
f 63/1/2 64/1/2 67/1/2
f 65/1/2 66/1/2 67/1/2
f 64/1/2 65/1/2 67/1/2
f 61/1/2 62/1/2 67/1/2
f 60/1/2 61/1/2 67/1/2
f 62/1/2 63/1/2 67/1/2
f 57/1/2 58/1/2 67/1/2
f 41/1/2 57/1/2 67/1/2
f 58/1/2 59/1/2 67/1/2
f 67/1/2 66/1/2 68/1/2
f 67/3/2 68/3/2 69/3/2
f 69/3/2 68/3/2 70/3/2
f 75/5/3 72/5/3 71/5/3
f 75/1/3 73/1/3 72/1/3
f 76/1/3 73/1/3 75/1/3
f 77/5/3 76/5/3 75/5/3
f 77/1/3 73/1/3 76/1/3
f 78/1/3 73/1/3 77/1/3
f 79/5/3 77/5/3 75/5/3
f 79/5/3 78/5/3 77/5/3
f 80/1/3 73/1/3 78/1/3
f 80/5/3 78/5/3 79/5/3
f 81/5/3 79/5/3 75/5/3
f 81/1/3 80/1/3 79/1/3
f 82/1/3 73/1/3 80/1/3
f 82/1/3 80/1/3 81/1/3
f 83/5/3 81/5/3 75/5/3
f 83/5/3 82/5/3 81/5/3
f 84/1/3 73/1/3 82/1/3
f 84/5/3 82/5/3 83/5/3
f 85/5/3 75/5/3 71/5/3
f 85/5/3 83/5/3 75/5/3
f 86/1/3 84/1/3 83/1/3
f 86/5/3 83/5/3 85/5/3
f 87/5/3 85/5/3 71/5/3
f 87/1/3 86/1/3 85/1/3
f 88/1/3 73/1/3 84/1/3
f 88/1/3 86/1/3 87/1/3
f 88/1/3 84/1/3 86/1/3
f 89/5/3 88/5/3 87/5/3
f 90/1/3 73/1/3 88/1/3
f 90/5/3 88/5/3 89/5/3
f 91/1/3 90/1/3 89/1/3
f 91/1/3 73/1/3 90/1/3
f 92/3/3 74/3/3 73/3/3
f 92/1/3 73/1/3 91/1/3
f 93/5/3 87/5/3 71/5/3
f 93/5/3 89/5/3 87/5/3
f 94/1/3 91/1/3 89/1/3
f 94/5/3 89/5/3 93/5/3
f 95/3/3 92/3/3 91/3/3
f 95/1/3 91/1/3 94/1/3
f 96/3/3 74/3/3 92/3/3
f 96/3/3 92/3/3 95/3/3
f 97/5/3 93/5/3 71/5/3
f 97/1/3 95/1/3 94/1/3
f 97/1/3 96/1/3 95/1/3
f 97/1/3 94/1/3 93/1/3
f 98/1/3 96/1/3 97/1/3
f 99/5/3 98/5/3 97/5/3
f 99/1/3 96/1/3 98/1/3
f 100/1/3 96/1/3 99/1/3
f 101/5/3 99/5/3 97/5/3
f 101/5/3 100/5/3 99/5/3
f 102/1/3 96/1/3 100/1/3
f 102/5/3 100/5/3 101/5/3
f 103/5/3 97/5/3 71/5/3
f 103/5/3 101/5/3 97/5/3
f 104/1/3 102/1/3 101/1/3
f 104/5/3 101/5/3 103/5/3
f 105/5/3 103/5/3 71/5/3
f 106/1/3 104/1/3 103/1/3
f 106/5/3 103/5/3 105/5/3
f 107/3/3 74/3/3 96/3/3
f 107/1/3 104/1/3 106/1/3
f 107/1/3 96/1/3 102/1/3
f 107/1/3 102/1/3 104/1/3
f 108/3/3 74/3/3 107/3/3
f 109/5/4 110/5/4 113/5/4
f 110/1/4 111/1/4 113/1/4
f 113/1/4 111/1/4 114/1/4
f 114/1/4 111/1/4 115/1/4
f 111/3/4 112/3/4 116/3/4
f 115/1/4 111/1/4 116/1/4
f 109/5/4 113/5/4 117/5/4
f 113/5/4 114/5/4 117/5/4
f 114/1/4 115/1/4 118/1/4
f 117/5/4 114/5/4 118/5/4
f 115/2/4 116/2/4 119/2/4
f 118/1/4 115/1/4 119/1/4
f 116/3/4 112/3/4 120/3/4
f 119/2/4 116/2/4 120/2/4
f 109/5/4 117/5/4 121/5/4
f 118/1/4 119/1/4 121/1/4
f 119/1/4 120/1/4 121/1/4
f 117/1/4 118/1/4 121/1/4
f 121/1/4 120/1/4 122/1/4
f 109/5/4 121/5/4 123/5/4
f 121/5/4 122/5/4 123/5/4
f 122/1/4 120/1/4 124/1/4
f 123/5/4 122/5/4 124/5/4
f 123/1/4 124/1/4 125/1/4
f 124/1/4 120/1/4 125/1/4
f 120/3/4 112/3/4 126/3/4
f 125/1/4 120/1/4 126/1/4
f 123/1/4 125/1/4 127/1/4
f 125/2/4 126/2/4 127/2/4
f 126/3/4 112/3/4 128/3/4
f 127/2/4 126/2/4 128/2/4
f 123/1/4 127/1/4 129/1/4
f 109/5/4 123/5/4 129/5/4
f 127/1/4 128/1/4 129/1/4
f 129/1/4 128/1/4 130/1/4
f 109/5/4 129/5/4 131/5/4
f 129/5/4 130/5/4 131/5/4
f 130/1/4 128/1/4 132/1/4
f 131/5/4 130/5/4 132/5/4
f 132/1/4 128/1/4 133/1/4
f 128/3/4 112/3/4 134/3/4
f 133/1/4 128/1/4 134/1/4
f 132/1/4 133/1/4 135/1/4
f 131/1/4 132/1/4 135/1/4
f 133/2/4 134/2/4 135/2/4
f 134/3/4 112/3/4 136/3/4
f 135/2/4 134/2/4 136/2/4
f 131/1/4 135/1/4 137/1/4
f 109/5/4 131/5/4 137/5/4
f 135/1/4 136/1/4 137/1/4
f 137/1/4 136/1/4 138/1/4
f 109/5/4 137/5/4 139/5/4
f 137/5/4 138/5/4 139/5/4
f 138/1/4 136/1/4 140/1/4
f 139/5/4 138/5/4 140/5/4
f 109/5/4 139/5/4 141/5/4
f 139/1/4 140/1/4 141/1/4
f 140/1/4 136/1/4 142/1/4
f 141/1/4 140/1/4 142/1/4
f 109/5/4 141/5/4 143/5/4
f 141/5/4 142/5/4 143/5/4
f 142/1/4 136/1/4 144/1/4
f 143/5/4 142/5/4 144/5/4
f 136/3/4 112/3/4 145/3/4
f 144/1/4 136/1/4 145/1/4
f 145/3/4 112/3/4 146/3/4
f 149/5/5 148/5/5 147/5/5
f 150/5/5 148/5/5 149/5/5
f 151/3/6 152/3/6 153/3/6
f 153/3/6 152/3/6 154/3/6
f 151/3/6 153/3/6 155/3/6
f 153/4/6 154/4/6 155/4/6
f 154/3/6 152/3/6 156/3/6
f 155/4/6 154/4/6 156/4/6
f 151/3/6 155/3/6 157/3/6
f 155/3/6 156/3/6 157/3/6
f 156/3/6 152/3/6 158/3/6
f 157/3/6 156/3/6 158/3/6
